<mxfile host="app.diagrams.net" modified="2024-06-07T09:01:04.458Z" agent="Mozilla/5.0 (Windows NT 10.0; Win64; x64) AppleWebKit/537.36 (KHTML, like Gecko) Chrome/123.0.0.0 Safari/537.36 OPR/109.0.0.0 (Edition std-1)" version="24.5.1" etag="veLruO4ruMs65PKcFoq5" type="github">
  <diagram name="PÃ¡gina-1" id="qpWH-1F8BW35oE3k7eRc">
    <mxGraphModel>
      <root>
        <mxCell id="0" />
        <mxCell id="1" parent="0" />
      </root>
    </mxGraphModel>
  </diagram>
</mxfile>
